<svg width="731" height="656" viewBox="0 0 731 656" fill="none" xmlns="http://www.w3.org/2000/svg">
<path d="M476.963 243.764C476.08 232.2 465.99 223.541 454.425 224.424C442.861 225.307 434.202 235.397 435.085 246.961L476.963 243.764ZM456.586 259.224L477.54 260.607L477.589 259.863L477.586 259.116L456.586 259.224ZM455.157 273.238L475.704 277.575L475.858 276.845L475.96 276.106L455.157 273.238ZM451.706 287.116L471.432 294.319L471.688 293.618L471.894 292.901L451.706 287.116ZM446.245 300.564L464.753 310.487L465.106 309.83L465.411 309.149L446.245 300.564ZM438.828 313.288L455.745 325.731L456.187 325.13L456.585 324.499L438.828 313.288ZM429.552 325.002L444.538 339.713L445.061 339.181L445.544 338.613L429.552 325.002ZM418.558 335.431L431.311 352.115L431.903 351.663L432.462 351.169L418.558 335.431ZM406.024 344.323L416.288 362.644L416.938 362.28L417.561 361.87L406.024 344.323ZM392.168 351.45L399.737 371.039L400.432 370.77L401.107 370.453L392.168 351.45ZM377.242 356.614L381.963 377.077L382.689 376.909L383.402 376.69L377.242 356.614ZM361.525 359.655L363.304 380.58L364.047 380.517L364.783 380.401L361.525 359.655ZM345.322 360.453L344.123 381.419L344.868 381.462L345.613 381.451L345.322 360.453ZM328.955 358.932L324.804 379.518L325.534 379.665L326.273 379.76L328.955 358.932ZM312.758 355.062L305.738 374.854L306.441 375.103L307.158 375.301L312.758 355.062ZM297.069 348.862L287.324 367.463L287.983 367.809L288.666 368.107L297.069 348.862ZM282.226 340.4L269.951 357.439L270.555 357.874L271.188 358.265L282.226 340.4ZM268.556 329.794L253.998 344.929L254.534 345.444L255.105 345.921L268.556 329.794ZM256.368 317.208L239.82 330.137L240.278 330.723L240.776 331.275L256.368 317.208ZM245.952 302.853L227.745 313.317L228.115 313.962L228.53 314.579L245.952 302.853ZM237.563 286.98L218.062 294.772L218.338 295.462L218.662 296.131L237.563 286.98ZM231.423 269.878L211.018 274.844L211.194 275.566L211.42 276.273L231.423 269.878ZM227.711 251.87L206.811 253.911L206.883 254.65L207.007 255.382L227.711 251.87ZM226.562 233.304L205.582 232.378L205.549 233.12L205.569 233.863L226.562 233.304ZM228.056 214.546L207.417 210.674L207.28 211.404L207.195 212.141L228.056 214.546ZM232.226 195.976L212.338 189.235L212.1 189.938L211.911 190.656L232.226 195.976ZM239.047 177.979L220.306 168.503L219.971 169.166L219.684 169.85L239.047 177.979ZM248.438 160.936L231.219 148.913L230.794 149.522L230.413 150.159L248.438 160.936ZM260.264 145.214L244.912 130.886L244.405 131.429L243.938 132.006L260.264 145.214ZM274.339 131.166L261.159 114.817L260.581 115.284L260.037 115.789L274.339 131.166ZM290.424 119.114L279.679 101.071L279.041 101.451L278.431 101.875L290.424 119.114ZM308.233 109.346L300.139 89.9686L299.453 90.2549L298.79 90.5889L308.233 109.346ZM327.441 102.11L322.159 81.7857L321.44 81.9725L320.736 82.2097L327.441 102.11ZM347.687 97.608L345.322 76.7416L344.583 76.8252L343.853 76.9608L347.687 97.608ZM368.578 95.9873L369.177 74.9958L368.435 74.9746L367.693 75.0059L368.578 95.9873ZM389.704 97.3408L393.256 76.6433L392.524 76.5177L391.785 76.4442L389.704 97.3408ZM410.64 101.702L417.072 81.7112L416.366 81.4837L415.645 81.3068L410.64 101.702ZM430.957 109.043L440.141 90.1572L439.473 89.8326L438.784 89.5559L430.957 109.043ZM450.228 119.273L461.98 101.87L461.365 101.454L460.723 101.084L450.228 119.273ZM468.043 132.244L482.128 116.668L481.578 116.171L480.994 115.713L468.043 132.244ZM484.011 147.745L500.148 134.307L499.674 133.737L499.16 133.202L484.011 147.745ZM497.772 165.512L515.639 154.477L515.25 153.846L514.817 153.244L497.772 165.512ZM509.005 185.226L528.246 176.814L527.95 176.135L527.606 175.479L509.005 185.226ZM517.433 206.527L537.666 200.904L537.468 200.19L537.22 199.492L517.433 206.527ZM522.833 229.012L543.656 226.29L543.56 225.555L543.412 224.829L522.833 229.012ZM525.039 252.248L546.037 252.481L546.045 251.74L546.001 251L525.039 252.248ZM523.946 275.779L544.704 278.961L544.816 278.229L544.876 277.491L523.946 275.779ZM519.517 299.135L539.621 305.202L539.835 304.493L539.999 303.771L519.517 299.135ZM511.78 321.838L530.831 330.671L531.143 329.999L531.406 329.307L511.78 321.838ZM500.831 343.419L518.452 354.843L518.855 354.221L519.213 353.573L500.831 343.419ZM486.835 363.421L502.675 377.209L503.161 376.65L503.607 376.058L486.835 363.421ZM470.021 381.411L483.764 397.29L484.324 396.805L484.849 396.282L470.021 381.411ZM450.678 396.992L462.051 414.646L462.674 414.244L463.267 413.8L450.678 396.992ZM429.152 409.807L437.93 428.884L438.603 428.575L439.253 428.218L429.152 409.807ZM405.842 419.548L411.848 439.671L412.559 439.459L413.252 439.197L405.842 419.548ZM381.186 425.967L384.302 446.734L385.035 446.624L385.758 446.463L381.186 425.967ZM355.66 428.877L355.822 449.877L356.564 449.871L357.303 449.813L355.66 428.877ZM329.763 428.162L326.969 448.975L327.704 449.074L328.444 449.12L329.763 428.162ZM304.01 423.774L298.317 443.988L299.031 444.189L299.757 444.339L304.01 423.774ZM278.925 415.742L270.446 434.954L271.124 435.253L271.821 435.504L278.925 415.742ZM255.023 404.166L243.926 421.995L244.555 422.387L245.21 422.733L255.023 404.166ZM232.805 389.224L219.312 405.316L219.88 405.792L220.479 406.226L232.805 389.224ZM212.745 371.16L197.125 385.196L197.62 385.747L198.152 386.262L212.745 371.16ZM195.283 350.29L177.845 361.992L178.258 362.607L178.713 363.191L195.283 350.29ZM180.81 326.987L161.902 336.124L162.224 336.79L162.592 337.432L180.81 326.987ZM169.666 301.683L149.662 308.074L149.887 308.779L150.162 309.466L169.666 301.683ZM162.127 274.855L141.424 278.375L141.548 279.104L141.723 279.823L162.127 274.855ZM158.4 247.02L137.408 247.598L137.428 248.337L137.501 249.074L158.4 247.02ZM158.62 218.721L137.754 216.346L137.671 217.081L137.639 217.82L158.62 218.721ZM162.842 190.52L142.516 185.24L142.33 185.956L142.195 186.683L162.842 190.52ZM171.042 162.986L151.659 154.905L151.374 155.587L151.138 156.289L171.042 162.986ZM183.115 136.682L165.059 125.959L164.681 126.595L164.349 127.256L183.115 136.682ZM198.878 112.154L182.507 99.0021L182.043 99.579L181.621 100.187L198.878 112.154ZM218.067 89.9226L203.706 74.6013L203.166 75.1075L202.663 75.6505L218.067 89.9226ZM240.349 70.467L228.283 53.2802L227.677 53.7056L227.102 54.1725L240.349 70.467ZM265.322 54.2188L255.789 35.507L255.13 35.8431L254.495 36.2248L265.322 54.2188ZM292.522 41.5508L285.714 21.6851L285.013 21.9252L284.331 22.2141L292.522 41.5508ZM321.437 32.7689L317.488 12.1435L316.761 12.2828L316.045 12.473L321.437 32.7689ZM351.511 28.105L350.5 7.12933L349.76 7.16499L349.024 7.25267L351.511 28.105ZM382.156 27.7112L384.103 6.80166L383.366 6.733L382.625 6.71645L382.156 27.7112ZM412.767 31.6559L417.633 11.2274L416.913 11.0558L416.182 10.9354L412.767 31.6559ZM442.729 39.9206L450.417 20.3786L449.728 20.1075L449.022 19.8857L442.729 39.9206ZM471.432 52.4001L481.789 34.1319L481.145 33.7668L480.477 33.448L471.432 52.4001ZM498.283 68.9023L511.104 52.27L510.518 51.8182L509.901 51.4087L498.283 68.9023ZM522.72 89.1519L537.749 74.4846L537.232 73.9551L536.679 73.4633L522.72 89.1519ZM544.218 112.794L561.157 100.382L560.72 99.7854L560.242 99.2209L544.218 112.794ZM562.308 139.401L580.822 129.49L580.473 128.838L580.079 128.212L562.308 139.401ZM576.581 168.481L596.303 161.265L596.049 160.57L595.746 159.896L576.581 168.481ZM586.701 199.482L607.24 195.105L607.085 194.382L606.881 193.671L586.701 199.482ZM592.409 231.811L613.359 230.358L613.307 229.621L613.204 228.889L592.409 231.811ZM593.533 264.838L614.479 266.337L614.532 265.6L614.533 264.861L593.533 264.838ZM589.99 297.909L610.519 302.333L610.675 301.61L610.779 300.878L589.99 297.909ZM581.791 330.365L601.496 337.624L601.751 336.931L601.958 336.221L581.791 330.365ZM569.038 361.547L587.53 371.499L587.881 370.848L588.185 370.174L569.038 361.547ZM551.93 390.816L568.843 403.264L569.281 402.668L569.676 402.044L551.93 390.816ZM530.752 417.56L545.75 432.259L546.268 431.73L546.747 431.167L530.752 417.56ZM505.877 441.213L518.663 457.871L519.25 457.421L519.803 456.93L505.877 441.213ZM477.755 461.263L488.075 479.552L488.72 479.188L489.337 478.78L477.755 461.263ZM446.908 477.263L454.558 496.82L455.247 496.55L455.916 496.233L446.908 477.263ZM413.919 488.844L418.747 509.281L419.467 509.111L420.173 508.891L413.919 488.844ZM379.421 495.718L381.33 516.631L382.067 516.564L382.798 516.445L379.421 495.718ZM344.085 497.691L343.038 518.665L343.777 518.702L344.517 518.687L344.085 497.691ZM308.607 494.663L304.625 515.282L305.352 515.422L306.086 515.511L308.607 494.663ZM273.695 486.634L266.857 506.489L267.557 506.73L268.271 506.921L273.695 486.634ZM240.053 473.703L230.495 492.402L231.154 492.739L231.834 493.028L240.053 473.703ZM208.369 456.071L196.28 473.243L196.885 473.669L197.518 474.051L208.369 456.071ZM179.298 434.033L164.919 449.338L165.458 449.845L166.032 450.312L179.298 434.033ZM153.454 407.978L137.069 421.114L137.532 421.691L138.034 422.233L153.454 407.978ZM131.389 378.377L113.324 389.085L113.701 389.721L114.122 390.329L131.389 378.377ZM113.59 345.782L94.2018 353.85L94.4858 354.533L94.817 355.193L113.59 345.782ZM100.461 310.808L80.1332 316.077L80.3186 316.792L80.5538 317.493L100.461 310.808ZM92.3191 274.125L71.453 276.492L71.5363 277.226L71.6709 277.953L92.3191 274.125ZM89.3837 236.447L68.3918 235.865L68.3713 236.603L68.4028 237.342L89.3837 236.447ZM91.7735 198.513L71.0704 194.994L70.9466 195.723L70.8743 196.458L91.7735 198.513ZM99.5013 161.08L79.4961 154.693L79.2714 155.396L79.0967 156.114L99.5013 161.08ZM112.474 124.898L93.5616 115.769L93.2404 116.434L92.9667 117.121L112.474 124.898ZM130.49 90.7051L113.046 79.0139L112.634 79.6279L112.267 80.2692L130.49 90.7051ZM153.249 59.2052L137.617 45.1826L137.123 45.7329L136.669 46.3165L153.249 59.2052ZM180.348 31.057L166.838 14.9799L166.272 15.4556L165.74 15.9699L180.348 31.057ZM211.295 6.85921L200.174 -10.9547L199.547 -10.5631L198.949 -10.1283L211.295 6.85921ZM245.514 -12.8619L237.004 -32.0602L236.328 -31.7605L235.675 -31.4139L245.514 -12.8619ZM282.36 -27.6637L276.629 -47.8666L275.918 -47.6647L275.222 -47.4133L282.36 -27.6637ZM321.126 -37.1975L318.288 -58.0049L317.555 -57.9049L316.831 -57.7536L321.126 -37.1975ZM361.059 -41.216L361.171 -62.2157L360.431 -62.2196L359.693 -62.1714L361.059 -41.216ZM401.377 -39.5794L404.435 -60.3554L403.703 -60.4632L402.966 -60.5192L401.377 -39.5794ZM441.278 -32.2598L447.223 -52.4007L446.514 -52.6101L445.791 -52.7691L441.278 -32.2598ZM479.964 -19.3424L488.677 -38.4495L488.004 -38.7564L487.311 -39.0151L479.964 -19.3424ZM516.649 -1.02526L527.957 -18.7205L527.334 -19.1187L526.684 -19.4721L516.649 -1.02526ZM550.581 22.3834L564.261 6.44978L563.7 5.96821L563.106 5.52727L550.581 22.3834ZM581.056 50.4705L596.835 36.6133L596.347 36.0579L595.822 35.5382L581.056 50.4705ZM607.43 82.7251L624.996 71.2177L624.591 70.5995L624.144 70.0114L607.43 82.7251ZM629.133 118.548L648.14 109.617L647.825 108.948L647.465 108.303L629.133 118.548ZM645.686 157.261L665.757 151.083L665.54 150.377L665.273 149.688L645.686 157.261ZM656.706 198.124L677.445 194.821L677.328 194.091L677.161 193.372L656.706 198.124ZM661.916 240.345L682.913 239.98L682.9 239.241L682.836 238.506L661.916 240.345ZM661.154 283.095L681.995 285.676L682.085 284.943L682.124 284.206L661.154 283.095ZM654.373 325.528L674.647 331.005L674.839 330.292L674.981 329.567L654.373 325.528ZM641.65 366.797L660.955 375.061L661.245 374.382L661.488 373.685L641.65 366.797ZM623.176 406.066L641.132 416.956L641.515 416.324L641.853 415.667L623.176 406.066ZM599.263 442.535L615.515 455.835L615.983 455.263L616.409 454.66L599.263 442.535ZM570.333 475.449L584.559 490.897L585.103 490.396L585.61 489.859L570.333 475.449ZM536.913 504.118L548.831 521.408L549.44 520.989L550.018 520.528L536.913 504.118ZM499.624 527.928L508.998 546.72L509.66 546.39L510.297 546.014L499.624 527.928ZM459.17 546.359L465.815 566.28L466.516 566.046L467.2 565.763L459.17 546.359ZM416.327 558.99L420.11 579.646L420.837 579.513L421.554 579.329L416.327 558.99ZM371.923 565.514L372.77 586.497L373.509 586.468L374.244 586.386L371.923 565.514ZM326.828 565.743L324.721 586.637L325.457 586.711L326.196 586.734L326.828 565.743ZM281.934 559.611L276.915 580.003L277.633 580.179L278.362 580.305L281.934 559.611ZM238.134 547.18L230.304 566.665L230.99 566.941L231.694 567.167L238.134 547.18ZM196.312 528.636L185.826 546.83L186.466 547.199L187.131 547.523L196.312 528.636ZM157.319 504.292L144.384 520.835L144.966 521.29L145.579 521.704L157.319 504.292ZM121.958 474.577L106.83 489.143L107.343 489.675L107.891 490.17L121.958 474.577ZM90.9654 440.032L73.9448 452.333L74.3775 452.932L74.8513 453.498L90.9654 440.032ZM64.9994 401.3L46.4226 411.093L46.767 411.746L47.1565 412.374L64.9994 401.3ZM44.6235 359.112L24.8574 366.204L25.1069 366.899L25.4045 367.575L44.6235 359.112ZM30.2945 314.275L9.72961 318.528L9.87915 319.251L10.0791 319.962L30.2945 314.275ZM22.3533 267.658L1.39543 268.987L1.44216 269.724L1.54053 270.456L22.3533 267.658ZM21.0164 220.171L0.0790672 218.55L0.0220871 219.287L0.0169487 220.025L21.0164 220.171ZM26.3706 172.751L5.86692 168.213L5.70734 168.934L5.59879 169.664L26.3706 172.751ZM38.3702 126.342L18.7048 118.976L18.4457 119.667L18.2359 120.375L38.3702 126.342ZM56.8365 81.8767L38.3976 71.8264L38.0441 72.4749L37.7371 73.1466L56.8365 81.8767ZM81.4604 40.256L64.6124 27.7202L64.1714 28.3129L63.7732 28.9351L81.4604 40.256ZM111.807 2.33362L96.8834 -12.4405L96.3636 -11.9154L95.8819 -11.3551L111.807 2.33362ZM147.325 -31.1034L134.62 -47.8244L134.032 -47.3773L133.476 -46.8899L147.325 -31.1034ZM187.353 -59.3502L177.119 -77.6879L176.473 -77.3277L175.855 -76.923L187.353 -59.3502ZM231.135 -81.7992L223.575 -101.391L222.885 -101.125L222.216 -100.811L231.135 -81.7992ZM277.833 -97.9532L273.097 -118.412L272.376 -118.245L271.67 -118.028L277.833 -97.9532ZM326.545 -107.436L324.727 -128.357L323.99 -128.293L323.259 -128.177L326.545 -107.436ZM376.32 -110L377.455 -130.969L376.717 -131.009L375.977 -130.997L376.32 -110ZM426.177 -105.535L430.243 -126.138L429.518 -126.281L428.784 -126.373L426.177 -105.535ZM475.126 -94.0688L482.043 -113.897L481.345 -114.141L480.632 -114.334L475.126 -94.0688ZM522.187 -75.769L531.817 -94.4307L531.16 -94.7697L530.481 -95.0617L522.187 -75.769ZM566.406 -50.9406L578.559 -68.0672L577.956 -68.4949L577.325 -68.8791L566.406 -50.9406ZM606.883 -20.0216L621.316 -35.2748L620.78 -35.7826L620.209 -36.2515L606.883 -20.0216ZM642.779 16.4254L659.208 3.34645L658.748 2.76848L658.249 2.22427L642.779 16.4254ZM673.342 57.7227L691.443 47.0758L691.069 46.4392L690.65 45.8305L673.342 57.7227ZM697.921 103.091L717.336 95.0854L717.054 94.4027L716.725 93.7415L697.921 103.091ZM715.977 151.661L736.322 146.456L736.139 145.74L735.906 145.04L715.977 151.661ZM727.096 202.497L747.969 200.193L747.888 199.459L747.756 198.733L727.096 202.497ZM731 254.606L751.99 255.249L752.013 254.511L751.983 253.773L731 254.606ZM727.551 306.963L748.244 310.54L748.37 309.813L748.444 309.078L727.551 306.963ZM716.757 358.531L736.745 364.972L736.972 364.269L737.148 363.552L716.757 358.531ZM698.773 408.278L717.661 417.456L717.983 416.792L718.259 416.107L698.773 408.278ZM673.895 455.201L691.311 466.935L691.724 466.323L692.092 465.683L673.895 455.201ZM642.564 498.344L658.163 512.404L658.657 511.855L659.112 511.273L642.564 498.344ZM605.348 536.82L618.822 552.928L619.388 552.454L619.92 551.942L605.348 536.82ZM562.939 569.828L574.021 587.666L574.649 587.276L575.247 586.843L562.939 569.828ZM516.138 596.666L524.609 615.882L525.285 615.584L525.939 615.239L516.138 596.666ZM465.84 616.753L471.531 636.967L472.242 636.767L472.938 636.517L465.84 616.753ZM413.015 629.635L415.813 650.448L416.546 650.349L417.27 650.2L413.015 629.635ZM435.085 246.961C435.398 251.057 435.565 255.18 435.586 259.331L477.586 259.116C477.559 253.977 477.352 248.86 476.963 243.764L435.085 246.961ZM435.632 257.84C435.356 262.01 434.93 266.186 434.354 270.37L475.96 276.106C476.672 270.944 477.199 265.778 477.54 260.607L435.632 257.84ZM434.61 268.9C433.732 273.06 432.702 277.203 431.519 281.331L471.894 292.901C473.349 287.824 474.619 282.715 475.704 277.575L434.61 268.9ZM431.98 279.913C430.498 283.974 428.865 287.996 427.08 291.98L465.411 309.149C467.599 304.264 469.606 299.32 471.432 294.319L431.98 279.913ZM427.737 290.642C425.661 294.514 423.439 298.326 421.071 302.078L456.585 324.499C459.481 319.913 462.204 315.242 464.753 310.487L427.737 290.642ZM421.911 300.846C419.265 304.443 416.482 307.958 413.56 311.391L445.544 338.613C449.106 334.429 452.506 330.134 455.745 325.731L421.911 300.846ZM414.566 310.291C411.388 313.528 408.084 316.662 404.653 319.694L432.462 351.169C436.633 347.483 440.659 343.665 444.538 339.713L414.566 310.291ZM405.804 318.748C402.144 321.546 398.371 324.222 394.486 326.777L417.561 361.87C422.271 358.773 426.855 355.521 431.311 352.115L405.804 318.748ZM395.76 326.003C391.678 328.29 387.502 330.438 383.229 332.447L401.107 370.453C406.272 368.023 411.333 365.42 416.288 362.644L395.76 326.003ZM384.6 331.861C380.169 333.573 375.663 335.132 371.082 336.538L383.402 376.69C388.927 374.995 394.373 373.111 399.737 371.039L384.6 331.861ZM372.521 336.152C367.823 337.236 363.072 338.155 358.267 338.91L364.783 380.401C370.563 379.493 376.29 378.385 381.963 377.077L372.521 336.152ZM359.746 338.731C354.871 339.145 349.966 339.387 345.031 339.455L345.613 381.451C351.535 381.369 357.432 381.079 363.304 380.58L359.746 338.731ZM346.52 339.488C341.564 339.204 336.603 338.743 331.636 338.104L326.273 379.76C332.218 380.525 338.169 381.079 344.123 381.419L346.52 339.488ZM333.106 338.346C328.168 337.351 323.252 336.176 318.357 334.822L307.158 375.301C313.005 376.919 318.887 378.324 324.804 379.518L333.106 338.346ZM319.777 335.269C314.962 333.562 310.194 331.678 305.473 329.616L288.666 368.107C294.291 370.563 299.982 372.812 305.738 374.854L319.777 335.269ZM306.815 330.26C302.225 327.855 297.708 325.281 293.264 322.535L271.188 358.265C276.471 361.529 281.85 364.595 287.324 367.463L306.815 330.26ZM294.501 323.361C290.238 320.29 286.073 317.059 282.006 313.666L255.105 345.921C259.929 349.944 264.878 353.784 269.951 357.439L294.501 323.361ZM283.114 314.659C279.275 310.966 275.557 307.127 271.961 303.141L240.776 331.275C245.032 335.993 249.44 340.544 253.998 344.929L283.114 314.659ZM272.917 304.279C269.593 300.024 266.411 295.641 263.373 291.126L228.53 314.579C232.119 319.91 235.882 325.096 239.82 330.137L272.917 304.279ZM264.158 292.388C261.432 287.644 258.867 282.791 256.464 277.828L218.662 296.131C221.494 301.98 224.522 307.709 227.745 313.317L264.158 292.388ZM257.063 279.187C255.006 274.038 253.127 268.804 251.426 263.483L211.42 276.273C213.421 282.532 215.635 288.699 218.062 294.772L257.063 279.187ZM251.827 264.913C250.499 259.455 249.362 253.938 248.416 248.359L207.007 255.382C208.118 261.931 209.455 268.419 211.018 274.844L251.827 264.913ZM248.612 249.83C248.059 244.168 247.707 238.474 247.554 232.745L205.569 233.863C205.748 240.575 206.161 247.258 206.811 253.911L248.612 249.83ZM247.541 234.229C247.795 228.474 248.254 222.715 248.918 216.951L207.195 212.141C206.417 218.883 205.88 225.629 205.582 232.378L247.541 234.229ZM248.696 218.418C249.772 212.686 251.053 206.979 252.541 201.297L211.911 190.656C210.174 197.29 208.676 203.963 207.417 210.674L248.696 218.418ZM252.115 202.718C254.01 197.126 256.108 191.59 258.409 186.108L219.684 169.85C217.002 176.239 214.553 182.701 212.338 189.235L252.115 202.718ZM257.787 187.456C260.483 182.123 263.375 176.875 266.462 171.712L230.413 150.159C226.821 156.168 223.452 162.283 220.306 168.503L257.787 187.456ZM265.656 172.958C269.117 168 272.762 163.155 276.591 158.423L243.938 132.006C239.49 137.504 235.25 143.14 231.219 148.913L265.656 172.958ZM275.617 159.543C279.791 155.07 284.132 150.737 288.641 146.543L260.037 115.789C254.807 120.654 249.765 125.686 244.912 130.886L275.617 159.543ZM287.52 147.515C292.337 143.631 297.303 139.91 302.416 136.353L278.431 101.875C272.509 105.995 266.752 110.309 261.159 114.817L287.52 147.515ZM301.169 137.157C306.547 133.954 312.049 130.936 317.677 128.103L298.79 90.5889C292.283 93.8649 285.912 97.3588 279.679 101.071L301.169 137.157ZM316.328 128.723C322.169 126.283 328.109 124.046 334.147 122.011L320.736 82.2097C313.765 84.5586 306.899 87.1449 300.139 89.9686L316.328 128.723ZM332.724 122.435C338.92 120.825 345.185 119.431 351.52 118.255L343.853 76.9608C336.55 78.3167 329.318 79.9249 322.159 81.7857L332.724 122.435ZM350.052 118.474C356.484 117.745 362.954 117.243 369.463 116.969L367.693 75.0059C360.2 75.322 352.743 75.9004 345.322 76.7416L350.052 118.474ZM367.979 116.979C374.522 117.166 381.07 117.585 387.624 118.237L391.785 76.4442C384.251 75.694 376.715 75.211 369.177 74.9958L367.979 116.979ZM386.153 118.038C392.675 119.157 399.169 120.51 405.636 122.097L415.645 81.3068C408.222 79.4854 400.758 77.9306 393.256 76.6433L386.153 118.038ZM404.208 121.693C410.576 123.742 416.883 126.02 423.129 128.529L438.784 89.5559C431.625 86.68 424.387 84.0648 417.072 81.7112L404.208 121.693ZM421.773 127.928C427.854 130.885 433.841 134.063 439.734 137.463L460.723 101.084C453.977 97.1918 447.116 93.5494 440.141 90.1572L421.773 127.928ZM438.476 136.677C444.141 140.502 449.68 144.535 455.092 148.775L480.994 115.713C474.807 110.866 468.469 106.251 461.98 101.87L438.476 136.677ZM453.958 147.82C459.082 152.453 464.05 157.276 468.862 162.289L499.16 133.202C493.666 127.479 487.989 121.968 482.128 116.668L453.958 147.82ZM467.874 161.184C472.341 166.548 476.626 172.079 480.728 177.779L514.817 153.244C510.141 146.747 505.251 140.434 500.148 134.307L467.874 161.184ZM479.905 176.546C483.611 182.547 487.111 188.689 490.404 194.973L527.606 175.479C523.856 168.324 519.867 161.323 515.639 154.477L479.905 176.546ZM489.763 193.638C492.618 200.167 495.245 206.808 497.646 213.561L537.22 199.492C534.49 191.813 531.498 184.253 528.246 176.814L489.763 193.638ZM497.2 212.149C499.127 219.085 500.812 226.1 502.254 233.195L543.412 224.829C541.774 216.772 539.859 208.796 537.666 200.904L497.2 212.149ZM502.01 231.734C502.952 238.944 503.641 246.197 504.076 253.496L546.001 251C545.509 242.721 544.727 234.483 543.656 226.29L502.01 231.734ZM504.04 252.016C503.959 259.359 503.617 266.709 503.016 274.068L544.876 277.491C545.558 269.152 545.945 260.815 546.037 252.481L504.04 252.016ZM503.188 272.598C502.065 279.927 500.681 287.227 499.035 294.498L539.999 303.771C541.861 295.541 543.43 287.271 544.704 278.961L503.188 272.598ZM499.412 293.067C497.249 300.234 494.83 307.334 492.153 314.369L531.406 329.307C534.433 321.354 537.171 313.319 539.621 305.202L499.412 293.067ZM492.728 313.005C489.549 319.861 486.123 326.614 482.449 333.265L519.213 353.573C523.362 346.062 527.235 338.428 530.831 330.671L492.728 313.005ZM483.21 331.995C479.06 338.396 474.678 344.659 470.063 350.783L503.607 376.058C508.814 369.148 513.762 362.076 518.452 354.843L483.21 331.995ZM470.996 349.633C465.94 355.44 460.673 361.076 455.192 366.541L484.849 396.282C491.026 390.122 496.968 383.764 502.675 377.209L470.996 349.633ZM456.277 365.533C450.402 370.618 444.339 375.502 438.088 380.185L463.267 413.8C470.306 408.528 477.138 403.025 483.764 397.29L456.277 365.533ZM439.304 379.339C432.712 383.586 425.962 387.604 419.052 391.395L439.253 428.218C447.025 423.954 454.625 419.43 462.051 414.646L439.304 379.339ZM420.375 390.729C413.187 394.036 405.873 397.092 398.432 399.899L413.252 439.197C421.614 436.044 429.84 432.606 437.93 428.884L420.375 390.729ZM399.836 399.425C392.186 401.708 384.446 403.724 376.614 405.47L385.758 446.463C394.55 444.502 403.247 442.238 411.848 439.671L399.836 399.425ZM378.071 405.199C370.105 406.394 362.087 407.308 354.017 407.942L357.303 449.813C366.354 449.103 375.354 448.076 384.302 446.734L378.071 405.199ZM355.497 407.878C347.37 407.941 339.232 407.716 331.081 407.203L328.444 449.12C337.577 449.695 346.703 449.947 355.822 449.877L355.497 407.878ZM332.556 407.348C324.43 406.258 316.333 404.878 308.264 403.209L299.757 444.339C308.789 446.207 317.86 447.753 326.969 448.975L332.556 407.348ZM309.704 403.561C301.742 401.318 293.851 398.791 286.029 395.98L271.821 435.504C280.569 438.648 289.401 441.476 298.317 443.988L309.704 403.561ZM287.404 396.53C279.771 393.161 272.248 389.518 264.835 385.6L245.21 422.733C253.493 427.11 261.905 431.184 270.446 434.954L287.404 396.53ZM266.119 386.338C258.974 381.89 251.977 377.185 245.13 372.221L220.479 406.226C228.123 411.767 235.939 417.024 243.926 421.995L266.119 386.338ZM246.297 373.132C239.792 367.677 233.472 361.986 227.338 356.059L198.152 386.262C204.994 392.873 212.047 399.224 219.312 405.316L246.297 373.132ZM228.365 357.124C222.642 350.755 217.138 344.177 211.852 337.388L178.713 363.191C184.602 370.755 190.739 378.09 197.125 385.196L228.365 357.124ZM212.72 338.587C207.907 331.417 203.344 324.068 199.028 316.541L162.592 337.432C167.397 345.812 172.481 353.999 177.845 361.992L212.72 338.587ZM199.718 317.85C195.929 310.009 192.413 302.026 189.17 293.9L150.162 309.466C153.769 318.505 157.682 327.391 161.902 336.124L199.718 317.85ZM189.67 295.292C186.997 286.927 184.618 278.459 182.531 269.888L141.723 279.823C144.042 289.349 146.688 298.766 149.662 308.074L189.67 295.292ZM182.83 271.336C181.346 262.607 180.169 253.818 179.299 244.966L137.501 249.074C138.467 258.902 139.774 268.67 141.424 278.375L182.83 271.336ZM179.392 246.442C179.147 237.519 179.216 228.579 179.6 219.622L137.639 217.82C137.212 227.759 137.135 237.686 137.408 247.598L179.392 246.442ZM179.485 221.096C180.503 212.155 181.837 203.243 183.488 194.357L142.195 186.683C140.364 196.535 138.884 206.422 137.754 216.346L179.485 221.096ZM183.167 195.801C185.447 187.022 188.04 178.317 190.945 169.684L151.138 156.289C147.92 165.853 145.046 175.504 142.516 185.24L183.167 195.801ZM190.424 171.068C193.942 162.631 197.761 154.311 201.881 146.107L164.349 127.256C159.788 136.338 155.558 145.554 151.659 154.905L190.424 171.068ZM201.171 147.405C205.875 139.484 210.862 131.723 216.134 124.122L181.621 100.187C175.789 108.596 170.268 117.187 165.059 125.959L201.171 147.405ZM215.249 125.307C221.063 118.07 227.137 111.033 233.472 104.195L202.663 75.6505C195.659 83.2095 188.94 90.9936 182.507 99.0021L215.249 125.307ZM232.429 105.244C239.253 98.8472 246.309 92.6865 253.597 86.7615L227.102 54.1725C219.052 60.7177 211.252 67.5274 203.706 74.6013L232.429 105.244ZM252.416 87.6539C260.129 82.2386 268.04 77.0916 276.148 72.2128L254.495 36.2248C245.544 41.6106 236.806 47.2957 228.283 53.2802L252.416 87.6539ZM274.854 72.9307C283.315 68.6206 291.934 64.6063 300.713 60.8876L284.331 22.2141C274.647 26.3163 265.132 30.7473 255.789 35.507L274.854 72.9307ZM299.331 61.4165C308.38 58.3151 317.546 55.5312 326.829 53.0648L316.045 12.473C305.811 15.1918 295.7 18.2625 285.714 21.6851L299.331 61.4165ZM325.386 53.3943C334.851 51.582 344.388 50.1029 353.997 48.9573L349.024 7.25267C338.439 8.51475 327.927 10.145 317.488 12.1435L325.386 53.3943ZM352.522 49.0806C362.219 48.6132 371.941 48.4882 381.687 48.706L382.625 6.71645C371.896 6.47669 361.187 6.6142 350.5 7.12933L352.522 49.0806ZM380.209 48.6208C389.948 49.5276 399.662 50.7793 409.352 52.3763L416.182 10.9354C405.522 9.1784 394.828 7.80032 384.103 6.80166L380.209 48.6208ZM407.901 52.0843C417.486 54.3675 426.998 56.9911 436.436 59.9556L449.022 19.8857C438.645 16.6264 428.182 13.7401 417.633 11.2274L407.901 52.0843ZM435.041 59.4627C444.278 63.0966 453.393 67.0596 462.387 71.3522L480.477 33.448C470.596 28.7318 460.576 24.3751 450.417 20.3786L435.041 59.4627ZM461.075 70.6682C469.773 75.5998 478.303 80.8421 486.666 86.3959L509.901 51.4087C500.72 45.311 491.349 39.5518 481.789 34.1319L461.075 70.6682ZM485.463 85.5346C493.44 91.6837 501.206 98.1187 508.76 104.841L536.679 73.4633C528.39 66.088 519.865 59.0233 511.104 52.27L485.463 85.5346ZM507.691 103.819C514.777 111.08 521.611 118.596 528.194 126.367L560.242 99.2209C553.024 90.6992 545.526 82.4535 537.749 74.4846L507.691 103.819ZM527.279 125.206C533.319 133.449 539.072 141.91 544.538 150.591L580.079 128.212C574.089 118.7 567.782 109.423 561.157 100.382L527.279 125.206ZM543.794 149.313C548.652 158.387 553.193 167.637 557.416 177.066L595.746 159.896C591.121 149.57 586.146 139.435 580.822 129.49L543.794 149.313ZM556.86 175.697C560.422 185.43 563.642 195.295 566.521 205.294L606.881 193.671C603.73 182.729 600.204 171.927 596.303 161.265L556.86 175.697ZM566.162 203.86C568.338 214.068 570.155 224.359 571.613 234.734L613.204 228.889C611.61 217.541 609.621 206.28 607.24 195.105L566.162 203.86ZM571.459 233.265C572.187 243.749 572.545 254.266 572.533 264.814L614.533 264.861C614.546 253.33 614.154 241.829 613.359 230.358L571.459 233.265ZM572.586 263.338C571.831 273.893 570.702 284.427 569.201 294.941L610.779 300.878C612.419 289.392 613.653 277.878 614.479 266.337L572.586 263.338ZM569.461 293.486C567.217 303.901 564.605 314.241 561.623 324.51L601.958 336.221C605.213 325.01 608.067 313.713 610.519 302.333L569.461 293.486ZM562.085 323.106C558.378 333.169 554.314 343.107 549.892 352.92L588.185 370.174C593.01 359.466 597.447 348.615 601.496 337.624L562.085 323.106ZM550.546 351.595C545.43 361.102 539.976 370.432 534.184 379.588L569.676 402.044C575.994 392.058 581.946 381.876 587.53 371.499L550.546 351.595ZM535.017 378.367C528.576 387.118 521.823 395.647 514.757 403.953L546.747 431.167C554.45 422.113 561.815 412.812 568.843 403.264L535.017 378.367ZM515.754 402.861C508.099 410.672 500.164 418.217 491.95 425.495L519.803 456.93C528.754 449 537.403 440.776 545.75 432.259L515.754 402.861ZM493.09 424.554C484.358 431.256 475.386 437.653 466.172 443.746L489.337 478.78C499.371 472.145 509.147 465.176 518.663 457.871L493.09 424.554ZM467.434 442.974C457.786 448.418 447.942 453.525 437.9 458.293L455.916 496.233C466.846 491.043 477.566 485.482 488.075 479.552L467.434 442.974ZM439.257 457.706C428.874 461.768 418.344 465.465 407.664 468.797L420.173 508.891C431.792 505.266 443.254 501.242 454.558 496.82L439.257 457.706ZM409.091 468.406C398.171 470.986 387.156 473.181 376.043 474.992L382.798 516.445C394.881 514.476 406.864 512.088 418.747 509.281L409.091 468.406ZM377.511 474.805C366.266 475.832 354.98 476.462 343.652 476.696L344.517 518.687C356.829 518.433 369.1 517.748 381.33 516.631L377.511 474.805ZM345.131 476.717C333.782 476.151 322.448 475.184 311.128 473.815L306.086 515.511C318.383 516.998 330.7 518.049 343.038 518.665L345.131 476.717ZM312.589 474.044C301.361 471.876 290.204 469.31 279.119 466.346L268.271 506.921C280.307 510.139 292.425 512.926 304.625 515.282L312.589 474.044ZM280.533 466.778C269.652 463.031 258.898 458.898 248.272 454.378L231.834 493.028C243.366 497.933 255.04 502.42 266.857 506.489L280.533 466.778ZM249.611 455.005C239.299 449.733 229.169 444.096 219.219 438.091L197.518 474.051C208.309 480.563 219.302 486.68 230.495 492.402L249.611 455.005ZM220.457 438.9C210.927 432.191 201.63 425.143 192.565 417.755L166.032 450.312C175.859 458.321 185.942 465.965 196.28 473.243L220.457 438.9ZM193.677 418.728C185.13 410.698 176.862 402.363 168.874 393.722L138.034 422.233C146.689 431.596 155.651 440.631 164.919 449.338L193.677 418.728ZM169.838 394.842C162.456 385.634 155.396 376.163 148.657 366.426L114.122 390.329C121.42 400.873 129.069 411.135 137.069 421.114L169.838 394.842ZM149.454 367.67C143.4 357.455 137.703 347.022 132.363 336.371L94.817 355.193C100.597 366.722 106.766 378.02 113.324 389.085L149.454 367.67ZM132.978 337.714C128.388 326.683 124.185 315.486 120.369 304.122L80.5538 317.493C84.6826 329.788 89.2319 341.907 94.2018 353.85L132.978 337.714ZM120.789 305.538C117.773 293.902 115.166 282.155 112.967 270.297L71.6709 277.953C74.0482 290.776 76.8689 303.485 80.1332 316.077L120.789 305.538ZM113.185 271.758C111.822 259.741 110.882 247.673 110.365 235.552L68.4028 237.342C68.9618 250.444 69.9784 263.494 71.453 276.492L113.185 271.758ZM110.376 237.028C110.713 224.867 111.478 212.714 112.673 200.569L70.8743 196.458C69.5837 209.581 68.7561 222.717 68.3918 235.865L110.376 237.028ZM112.477 202.032C114.527 189.968 117.003 177.972 119.906 166.045L79.0967 156.114C75.9621 168.996 73.2865 181.957 71.0704 194.994L112.477 202.032ZM119.506 167.467C123.25 155.741 127.408 144.144 131.98 132.675L92.9667 117.121C88.0304 129.502 83.54 142.026 79.4961 154.693L119.506 167.467ZM131.385 134.027C136.767 122.879 142.543 111.917 148.714 101.141L112.267 80.2692C105.608 91.8974 99.3726 103.731 93.5616 115.769L131.385 134.027ZM147.935 102.396C154.866 92.0539 162.164 81.9533 169.828 72.0939L136.669 46.3165C128.402 56.9516 120.527 67.851 113.046 79.0139L147.935 102.396ZM168.881 73.2278C177.242 63.9075 185.933 54.8798 194.955 46.1441L165.74 15.9699C156.012 25.3891 146.637 35.1268 137.617 45.1826L168.881 73.2278ZM193.858 47.1341C203.497 39.0337 213.425 31.2714 223.641 23.8467L198.949 -10.1283C187.938 -2.1258 177.234 6.24372 166.838 14.9799L193.858 47.1341ZM222.415 24.6731C233.156 17.9682 244.135 11.6407 255.354 5.69019L235.675 -31.4139C223.587 -25.0028 211.753 -18.183 200.174 -10.9547L222.415 24.6731ZM254.024 6.33649C265.664 1.17685 277.489 -3.57334 289.498 -7.91418L275.222 -47.4133C262.287 -42.7382 249.548 -37.6205 237.004 -32.0602L254.024 6.33649ZM288.091 -7.46085C300.408 -10.9548 312.851 -14.015 325.421 -16.6414L316.831 -57.7536C303.298 -54.9261 289.898 -51.6304 276.629 -47.8666L288.091 -7.46085ZM323.964 -16.3902C336.72 -18.13 349.541 -19.4202 362.426 -20.2605L359.693 -62.1714C345.826 -61.2671 332.024 -59.8783 318.288 -58.0049L323.964 -16.3902ZM360.948 -20.2163C373.894 -20.1475 386.84 -19.6221 399.788 -18.6396L402.966 -60.5192C389.038 -61.5761 375.106 -62.1417 361.171 -62.2157L360.948 -20.2163ZM398.318 -18.8033C411.198 -16.9072 424.013 -14.5564 436.765 -11.7504L445.791 -52.7691C432.078 -55.7865 418.293 -58.3154 404.435 -60.3554L398.318 -18.8033ZM435.333 -12.1188C447.889 -8.4129 460.316 -4.26334 472.616 0.330429L487.311 -39.0151C474.089 -43.9529 460.727 -48.415 447.223 -52.4007L435.333 -12.1188ZM471.25 -0.235214C483.228 5.22661 495.015 11.112 506.613 17.4216L526.684 -19.4721C514.223 -26.2516 501.553 -32.5776 488.677 -38.4495L471.25 -0.235214ZM505.34 16.67C516.495 23.7982 527.4 31.3211 538.057 39.2395L563.106 5.52727C551.661 -2.9774 539.944 -11.0603 527.957 -18.7205L505.34 16.67ZM536.902 38.317C547.002 46.9875 556.798 56.0159 566.291 65.4028L595.822 35.5382C585.63 25.4603 575.11 15.7639 564.261 6.44978L536.902 38.317ZM565.277 64.3277C574.109 74.3846 582.589 84.7546 590.715 95.4388L624.144 70.0114C615.422 58.5452 606.319 47.4122 596.835 36.6133L565.277 64.3277ZM589.863 94.2325C597.238 105.49 604.217 117.01 610.801 128.792L647.465 108.303C640.401 95.6635 632.912 83.3013 624.996 71.2177L589.863 94.2325ZM610.127 127.478C615.881 139.725 621.206 152.177 626.099 164.834L665.273 149.688C660.025 136.115 654.314 122.757 648.14 109.617L610.127 127.478ZM625.616 163.439C629.618 176.442 633.163 189.588 636.251 202.877L677.161 193.372C673.851 179.126 670.05 165.029 665.757 151.083L625.616 163.439ZM635.968 201.428C638.119 214.935 639.796 228.52 640.997 242.183L682.836 238.506C681.549 223.864 679.752 209.302 677.445 194.821L635.968 201.428ZM640.919 240.709C641.158 254.457 640.913 268.214 640.183 281.983L682.124 284.206C682.906 269.457 683.169 254.714 682.913 239.98L640.919 240.709ZM640.313 280.513C638.614 294.229 636.432 307.888 633.766 321.489L674.981 329.567C677.836 315.003 680.174 300.372 681.995 285.676L640.313 280.513ZM634.1 320.051C630.477 333.463 626.381 346.748 621.811 359.909L661.488 373.685C666.379 359.597 670.766 345.37 674.647 331.005L634.1 320.051ZM622.344 358.532C616.849 371.369 610.901 384.013 604.499 396.465L641.853 415.667C648.703 402.341 655.071 388.806 660.955 375.061L622.344 358.532ZM605.22 395.177C597.942 407.177 590.242 418.921 582.117 430.411L616.409 454.66C625.101 442.368 633.342 429.8 641.132 416.956L605.22 395.177ZM583.012 429.236C574.079 440.151 564.761 450.752 555.057 461.04L585.61 489.859C595.988 478.856 605.957 467.515 615.515 455.835L583.012 429.236ZM556.108 460.002C545.681 469.604 534.915 478.84 523.809 487.708L550.018 520.528C561.891 511.045 573.406 501.168 584.559 490.897L556.108 460.002ZM524.995 486.828C513.266 494.912 501.252 502.584 488.951 509.843L510.297 546.014C523.444 538.256 536.289 530.054 548.831 521.408L524.995 486.828ZM490.25 509.137C477.44 515.527 464.404 521.466 451.141 526.954L467.2 565.763C481.371 559.899 495.304 553.551 508.998 546.72L490.25 509.137ZM452.526 526.438C438.878 530.99 425.07 535.061 411.1 538.651L421.554 579.329C436.476 575.494 451.23 571.145 465.815 566.28L452.526 526.438ZM412.544 538.334C398.323 540.938 384.009 543.041 369.603 544.643L374.244 586.386C389.628 584.675 404.917 582.429 420.11 579.646L412.544 538.334ZM371.077 544.531C356.559 545.117 342.021 545.191 327.46 544.753L326.196 586.734C341.74 587.201 357.265 587.123 372.77 586.497L371.077 544.531ZM328.935 544.849C314.408 543.384 299.931 541.407 285.505 538.917L278.362 580.305C293.757 582.962 309.211 585.073 324.721 586.637L328.935 544.849ZM286.952 539.219C272.704 535.713 258.578 531.704 244.575 527.192L231.694 567.167C246.633 571.981 261.707 576.26 276.915 580.003L286.952 539.219ZM245.965 527.694C232.281 522.195 218.792 516.214 205.494 509.75L187.131 547.523C201.313 554.417 215.704 560.798 230.304 566.665L245.965 527.694ZM206.799 510.442C193.96 503.041 181.38 495.188 169.06 486.88L145.579 521.704C158.714 530.56 172.13 538.936 185.826 546.83L206.799 510.442ZM170.255 487.749C158.522 478.575 147.112 468.987 136.024 458.984L107.891 490.17C119.709 500.831 131.873 511.053 144.384 520.835L170.255 487.749ZM137.086 460.012C126.704 449.23 116.702 438.081 107.079 426.566L74.8513 453.498C85.1043 465.768 95.764 477.649 106.83 489.143L137.086 460.012ZM107.986 427.732C99.1758 415.541 90.7946 403.039 82.8423 390.226L47.1565 412.374C55.6269 426.022 64.5565 439.342 73.9448 452.333L107.986 427.732ZM83.5763 391.507C76.5277 378.136 69.9499 364.517 63.8424 350.648L25.4045 367.575C31.9078 382.343 38.9139 396.849 46.4226 411.093L83.5763 391.507ZM64.3895 352.019C59.2598 337.723 54.6333 323.247 50.5099 308.589L10.0791 319.962C14.4684 335.565 19.3945 350.98 24.8574 366.204L64.3895 352.019ZM50.8594 310.023C47.7689 295.078 45.2044 280.024 43.1661 264.86L1.54053 270.456C3.70967 286.592 6.43935 302.617 9.72961 318.528L50.8594 310.023ZM43.3112 266.329C42.3408 251.026 41.9089 235.689 42.0159 220.317L0.0169487 220.025C-0.0968666 236.379 0.362547 252.7 1.39543 268.987L43.3112 266.329ZM41.9538 221.792C43.1427 206.432 44.8722 191.114 47.1425 175.838L5.59879 169.664C3.18412 185.911 1.3441 202.207 0.0790672 218.55L41.9538 221.792ZM46.8744 177.29C50.2192 162.178 54.0958 147.185 58.5045 132.31L18.2359 120.375C13.5481 136.192 9.42495 152.138 5.86692 168.213L46.8744 177.29ZM58.0356 133.709C63.49 119.149 69.4565 104.782 75.9358 90.6068L37.7371 73.1466C30.8495 88.215 24.5052 103.492 18.7048 118.976L58.0356 133.709ZM75.2753 91.927C82.7502 78.2131 90.7074 64.7633 99.1475 51.577L63.7732 28.9351C54.8035 42.9488 46.3447 57.2461 38.3976 71.8264L75.2753 91.927ZM98.3084 52.7918C107.674 40.2047 117.482 27.9484 127.733 16.0223L95.8819 -11.3551C84.9904 1.31612 74.5669 14.3414 64.6124 27.7202L98.3084 52.7918ZM126.731 17.1077C137.818 5.90825 149.299 -4.8998 161.174 -15.3168L133.476 -46.8899C120.863 -35.8248 108.665 -24.3414 96.8834 -12.4405L126.731 17.1077ZM160.03 -14.3824C172.633 -23.9588 185.573 -33.0904 198.85 -41.7774L175.855 -76.923C161.755 -67.6977 148.01 -57.9981 134.62 -47.8244L160.03 -14.3824ZM197.586 -41.0125C211.47 -48.7606 225.626 -56.0188 240.054 -62.7874L222.216 -100.811C206.897 -93.625 191.865 -85.9172 177.119 -77.6879L197.586 -41.0125ZM238.695 -62.2072C253.594 -67.9564 268.694 -73.1799 283.996 -77.878L271.67 -118.028C255.427 -113.042 239.395 -107.496 223.575 -101.391L238.695 -62.2072ZM282.569 -77.4943C298.197 -81.112 313.95 -84.1787 329.831 -86.6943L323.259 -128.177C306.408 -125.508 289.686 -122.253 273.097 -118.412L282.569 -77.4943ZM328.364 -86.5146C344.415 -87.9099 360.515 -88.7393 376.663 -89.0028L375.977 -130.997C358.846 -130.718 341.762 -129.838 324.727 -128.357L328.364 -86.5146ZM375.185 -89.0307C391.345 -88.1559 407.473 -86.7116 423.57 -84.6975L428.784 -126.373C411.712 -128.509 394.602 -130.041 377.455 -130.969L375.185 -89.0307ZM422.111 -84.9325C438.06 -81.7847 453.896 -78.0751 469.621 -73.8033L480.632 -114.334C463.958 -118.864 447.161 -122.799 430.243 -126.138L422.111 -84.9325ZM468.21 -74.2406C483.628 -68.8622 498.855 -62.9409 513.893 -56.4762L530.481 -95.0617C514.54 -101.915 498.394 -108.193 482.043 -113.897L468.21 -74.2406ZM512.557 -57.1072C527.133 -49.5853 541.443 -41.5504 555.488 -33.0021L577.325 -68.8791C562.44 -77.9386 547.271 -86.456 531.817 -94.4307L512.557 -57.1072ZM554.254 -33.814C567.692 -24.2793 580.792 -14.2721 593.556 -3.79156L620.209 -36.2515C606.685 -47.3557 592.801 -57.9612 578.559 -68.0672L554.254 -33.814ZM592.449 -4.76833C604.47 6.60737 616.09 18.4054 627.308 30.6265L658.249 2.22427C646.366 -10.7208 634.055 -23.2208 621.316 -35.2748L592.449 -4.76833ZM626.349 29.5043C636.702 42.511 646.597 55.8809 656.034 69.615L690.65 45.8305C680.658 31.2867 670.177 17.125 659.208 3.34645L626.349 29.5043ZM655.241 68.3696C663.707 82.7628 671.666 97.4525 679.117 112.44L716.725 93.7415C708.837 77.8748 700.409 62.3193 691.443 47.0758L655.241 68.3696ZM678.507 111.096C684.9 126.601 690.748 142.33 696.048 158.283L735.906 145.04C730.295 128.155 724.105 111.503 717.336 95.0854L678.507 111.096ZM695.633 156.867C699.809 173.187 703.41 189.651 706.436 206.261L747.756 198.733C744.554 181.156 740.742 163.73 736.322 146.456L695.633 156.867ZM706.223 204.801C708.079 221.617 709.344 238.496 710.017 255.439L751.983 253.773C751.272 235.849 749.934 217.989 747.969 200.193L706.223 204.801ZM710.01 253.963C709.49 270.946 708.373 287.907 706.658 304.849L748.444 309.078C750.258 291.16 751.44 273.216 751.99 255.249L710.01 253.963ZM706.858 303.387C703.952 320.199 700.455 336.907 696.366 353.51L737.148 363.552C741.471 345.995 745.17 328.324 748.244 310.54L706.858 303.387ZM696.769 352.09C691.515 368.397 685.687 384.517 679.286 400.449L718.259 416.107C725.026 399.263 731.188 382.217 736.745 364.972L696.769 352.09ZM679.884 399.1C672.366 414.573 664.304 429.779 655.698 444.719L692.092 465.683C701.188 449.892 709.711 433.816 717.661 417.456L679.884 399.1ZM656.48 443.466C646.828 457.791 636.673 471.774 626.016 485.415L659.112 511.273C670.374 496.858 681.108 482.078 691.311 466.935L656.48 443.466ZM626.965 484.284C615.353 497.167 603.29 509.639 590.776 521.699L619.92 551.942C633.143 539.199 645.89 526.019 658.163 512.404L626.965 484.284ZM591.874 520.713C578.518 531.885 564.77 542.585 550.631 552.813L575.247 586.843C590.183 576.039 604.708 564.734 618.822 552.928L591.874 520.713ZM551.858 551.99C537.007 561.216 521.834 569.917 506.338 578.093L525.939 615.239C542.304 606.604 558.332 597.413 574.021 587.666L551.858 551.99ZM507.668 577.45C491.606 584.53 475.297 591.043 458.742 596.989L472.938 636.517C490.419 630.239 507.643 623.36 524.609 615.882L507.668 577.45ZM460.149 596.539C443.184 601.315 426.055 605.492 408.76 609.071L417.27 650.2C435.528 646.422 453.616 642.011 471.531 636.967L460.149 596.539ZM410.216 608.823C392.679 611.181 375.062 612.921 357.364 614.042L360.02 655.958C378.699 654.774 397.297 652.938 415.813 650.448L410.216 608.823Z" fill="#EAF5EA" fill-opacity="0.41"/>
</svg>
