<svg width="380" height="411" viewBox="0 0 380 411" fill="none" xmlns="http://www.w3.org/2000/svg">
<path d="M181.901 190.068C182.241 190.34 182.572 190.63 182.896 190.938C183.2 191.282 183.494 191.641 183.776 192.018C184.034 192.427 184.278 192.852 184.508 193.292C184.709 193.761 184.893 194.243 185.061 194.738C185.195 195.259 185.311 195.791 185.408 196.334C185.466 196.897 185.504 197.468 185.522 198.049C185.498 198.644 185.452 199.245 185.385 199.851C185.272 200.467 185.137 201.085 184.978 201.707C184.773 202.33 184.544 202.954 184.291 203.577C183.99 204.196 183.666 204.811 183.317 205.423C182.92 206.024 182.498 206.618 182.053 207.204C181.561 207.773 181.044 208.332 180.505 208.88C179.919 209.404 179.311 209.913 178.681 210.409C178.007 210.874 177.312 211.322 176.596 211.752C175.839 212.145 175.064 212.518 174.27 212.87C173.439 213.18 172.592 213.466 171.728 213.728C170.834 213.942 169.925 214.13 169.002 214.293C168.054 214.402 167.095 214.482 166.125 214.535C165.137 214.529 164.141 214.494 163.137 214.429C162.122 214.302 161.103 214.144 160.08 213.954C159.053 213.701 158.026 213.415 156.999 213.097C155.976 212.713 154.957 212.296 153.942 211.846C152.94 211.33 151.946 210.781 150.96 210.198C149.994 209.55 149.042 208.87 148.101 208.156C147.19 207.379 146.296 206.57 145.418 205.729C144.578 204.826 143.758 203.894 142.96 202.931C142.207 201.91 141.478 200.862 140.775 199.785C140.125 198.654 139.504 197.498 138.911 196.317C138.379 195.088 137.88 193.836 137.412 192.562C137.012 191.247 136.646 189.912 136.317 188.559C136.06 187.172 135.842 185.77 135.661 184.353C135.559 182.91 135.498 181.457 135.477 179.993C135.538 178.512 135.642 177.025 135.788 175.532C136.019 174.032 136.294 172.531 136.613 171.028C137.019 169.528 137.47 168.033 137.965 166.541C138.548 165.062 139.176 163.593 139.848 162.132C140.608 160.695 141.413 159.273 142.261 157.865C143.196 156.492 144.173 155.138 145.193 153.803C146.298 152.514 147.443 151.249 148.629 150.01C149.895 148.825 151.199 147.67 152.542 146.546C153.959 145.486 155.412 144.461 156.9 143.47C158.456 142.554 160.045 141.677 161.665 140.84C163.345 140.085 165.053 139.373 166.789 138.705C168.576 138.128 170.387 137.598 172.22 137.114C174.095 136.729 175.988 136.393 177.9 136.108C179.842 135.926 181.796 135.796 183.763 135.72C185.75 135.752 187.743 135.838 189.743 135.979C191.75 136.231 193.758 136.54 195.766 136.905C197.769 137.382 199.767 137.917 201.758 138.508C203.732 139.213 205.693 139.975 207.642 140.794C209.559 141.725 211.458 142.712 213.338 143.755C215.175 144.908 216.985 146.115 218.771 147.377C220.5 148.745 222.197 150.165 223.862 151.638C225.458 153.211 227.016 154.832 228.537 156.503C229.976 158.268 231.372 160.078 232.724 161.933C233.984 163.874 235.194 165.855 236.356 167.877C237.414 169.975 238.419 172.108 239.37 174.278C240.208 176.512 240.989 178.776 241.71 181.07C242.312 183.417 242.851 185.787 243.328 188.181C243.677 190.616 243.961 193.067 244.18 195.535C244.266 198.029 244.285 200.533 244.236 203.047C244.049 205.572 243.794 208.099 243.469 210.629C243.006 213.156 242.472 215.677 241.868 218.192C241.124 220.689 240.311 223.172 239.427 225.643C238.405 228.078 237.314 230.493 236.154 232.887C234.857 235.23 233.494 237.545 232.064 239.831C230.502 242.051 228.876 244.235 227.185 246.382C225.37 248.449 223.493 250.472 221.556 252.452C219.502 254.336 217.392 256.17 215.225 257.953C212.951 259.627 210.626 261.244 208.249 262.804C205.777 264.243 203.259 265.619 200.697 266.931C198.051 268.111 195.366 269.223 192.644 270.265C189.852 271.166 187.028 271.993 184.174 272.747C181.266 273.35 178.334 273.876 175.379 274.325C172.386 274.616 169.379 274.827 166.356 274.958C163.313 274.927 160.264 274.813 157.208 274.617C154.15 274.255 151.094 273.81 148.041 273.281C145.003 272.585 141.977 271.806 138.963 270.943C135.982 269.914 133.023 268.802 130.085 267.608C127.199 266.25 124.343 264.811 121.518 263.291C118.762 261.613 116.046 259.857 113.369 258.023C110.78 256.037 108.239 253.978 105.746 251.844C103.358 249.567 101.026 247.221 98.7506 244.807C96.596 242.259 94.5056 239.649 92.4795 236.976C90.5891 234.182 88.7702 231.333 87.0228 228.426C85.4248 225.415 83.9048 222.354 82.4627 219.244C81.1823 216.045 79.9855 212.805 78.8723 209.524C77.9313 206.171 77.0787 202.786 76.3145 199.37C75.7312 195.899 75.2401 192.406 74.8412 188.891C74.6298 185.342 74.5135 181.78 74.4922 178.206C74.663 174.617 74.9306 171.027 75.2949 167.434C75.8536 163.848 76.5097 160.271 77.2632 156.702C78.2111 153.161 79.2558 149.639 80.3974 146.136C81.7312 142.682 83.1601 139.258 84.6841 135.863C86.3957 132.539 88.1996 129.255 90.0957 126.011C92.1725 122.858 94.3376 119.755 96.5908 116.702C99.0156 113.76 101.523 110.878 104.114 108.057C106.865 105.365 109.693 102.742 112.598 100.188C115.649 97.7825 118.77 95.4545 121.961 93.2044C125.282 91.1181 128.665 89.1176 132.109 87.2028C135.667 85.4666 139.278 83.823 142.94 82.2721C146.698 80.9128 150.498 79.652 154.34 78.4899C158.256 77.5301 162.205 76.6739 166.185 75.9212C170.218 75.3796 174.271 74.9452 178.346 74.6182C182.45 74.5085 186.563 74.5087 190.686 74.6187C194.815 74.9501 198.942 75.3925 203.065 75.9462C207.172 76.7225 211.264 77.6099 215.34 78.6085C219.376 79.8285 223.385 81.1585 227.366 82.5982C231.283 84.2555 235.16 86.0201 238.999 87.892C242.748 89.9749 246.447 92.1611 250.096 94.4507C253.632 96.9423 257.107 99.532 260.52 102.22C263.798 105.098 267.004 108.068 270.137 111.13C273.115 114.368 276.011 117.69 278.824 121.096C281.462 124.662 284.008 128.304 286.463 132.021C288.725 135.879 290.887 139.803 292.948 143.793C294.802 147.904 296.548 152.07 298.186 156.291C299.603 160.61 300.906 164.973 302.096 169.38C303.052 173.862 303.89 178.375 304.61 182.92C305.088 187.514 305.444 192.127 305.677 196.759C305.663 201.416 305.525 206.077 305.262 210.744C304.749 215.409 304.111 220.066 303.347 224.715C302.332 229.334 301.193 233.932 299.929 238.509C298.417 243.029 296.783 247.514 295.026 251.964C293.026 256.331 290.908 260.65 288.67 264.921C286.199 269.082 283.613 273.182 280.913 277.221C277.992 281.125 274.962 284.955 271.824 288.712C268.479 292.31 265.033 295.823 261.488 299.251C257.751 302.497 253.923 305.646 250.004 308.7C245.912 311.551 241.741 314.296 237.488 316.935C233.085 319.352 228.612 321.655 224.069 323.843C219.4 325.792 214.674 327.619 209.89 329.324C205.005 330.777 200.075 332.101 195.102 333.296C190.054 334.227 184.975 335.025 179.866 335.689C174.711 336.082 169.54 336.337 164.353 336.455C159.148 336.297 153.942 335.999 148.736 335.562C143.541 334.846 138.36 333.99 133.193 332.995C128.069 331.722 122.973 330.311 117.906 328.762C112.911 326.939 107.96 324.981 103.052 322.887C98.2463 320.528 93.4987 318.037 88.8093 315.416C84.2505 312.54 79.764 309.538 75.3497 306.413C71.0936 303.045 66.9232 299.561 62.8385 295.959C58.9381 292.133 55.136 288.198 51.4323 284.156C47.9372 279.909 44.5521 275.564 41.277 271.121C38.2328 266.496 35.3092 261.784 32.5061 256.988C29.9537 252.032 27.5312 247.004 25.2385 241.903C23.2138 236.67 21.3268 231.378 19.5776 226.027C18.1107 220.574 16.7879 215.076 15.6093 209.534C14.7244 203.918 13.9884 198.275 13.4014 192.602C13.116 186.888 12.9828 181.161 13.0018 175.422C13.327 169.673 13.8059 163.928 14.4384 158.186C15.3783 152.469 16.4716 146.771 17.7182 141.093C19.2698 135.472 20.9728 129.887 22.827 124.339C24.9803 118.88 27.2811 113.474 29.7293 108.121C32.4672 102.889 35.347 97.7262 38.3685 92.6316C41.6669 87.6896 45.0999 82.8314 48.6674 78.0571C52.4954 73.4651 56.4491 68.9713 60.5284 64.5758C64.8488 60.3907 69.2843 56.3173 73.835 52.3557C78.6043 48.6303 83.4768 45.029 88.4525 41.552C93.6216 38.3346 98.8806 35.2525 104.23 32.3056C109.744 29.6392 115.334 27.1178 121 24.7412C126.801 22.663 132.662 20.7378 138.583 18.9656C144.607 17.5063 150.675 16.2065 156.787 15.0661C162.969 14.2499 169.177 13.5977 175.412 13.1098C181.683 12.9534 187.962 12.9641 194.25 13.1418C200.538 13.6549 206.818 14.3361 213.088 15.1852C219.322 16.3697 225.53 17.7213 231.71 19.24C237.819 21.0903 243.882 23.1047 249.901 25.2832C255.813 27.7858 261.662 30.4476 267.448 33.2688C273.093 36.4024 278.658 39.6887 284.144 43.1277C289.454 46.8639 294.668 50.7442 299.787 54.7686C304.698 59.0715 309.498 63.5082 314.187 68.0788C318.639 72.9056 322.966 77.8544 327.166 82.9251C331.103 88.2266 334.901 93.6366 338.56 99.1551C341.93 104.876 345.15 110.691 348.22 116.599C350.98 122.679 353.579 128.836 356.018 135.071C358.128 141.444 360.07 147.878 361.843 154.372C363.273 160.969 364.528 167.608 365.608 174.29C366.334 181.038 366.88 187.81 367.247 194.605C367.253 201.429 367.077 208.257 366.719 215.09C365.996 221.912 365.092 228.719 364.005 235.512C362.555 242.255 360.925 248.964 359.114 255.638C356.946 262.224 354.6 268.757 352.078 275.235C349.208 281.588 346.167 287.868 342.955 294.075C339.408 300.119 335.699 306.072 331.826 311.934C327.636 317.597 323.294 323.152 318.797 328.598C314.006 333.812 309.073 338.901 303.998 343.866C298.653 348.566 293.179 353.126 287.577 357.547C281.734 361.675 275.777 365.65 269.707 369.471C263.426 372.974 257.049 376.311 250.574 379.484C243.924 382.315 237.194 384.97 230.385 387.45C223.436 389.571 216.428 391.507 209.358 393.26C202.188 394.638 194.977 395.826 187.725 396.824C180.413 397.437 173.08 397.856 165.726 398.081C158.353 397.914 150.98 397.55 143.608 396.991C136.258 396.038 128.929 394.889 121.621 393.544C114.377 391.809 107.176 389.88 100.017 387.757C92.9637 385.251 85.9733 382.555 79.0459 379.671C72.265 376.415 65.5672 372.977 58.9525 369.356C52.5238 365.38 46.1977 361.231 39.9741 356.908C33.9743 352.25 28.0954 347.43 22.3375 342.448" stroke="#E8F5E8" stroke-width="25"/>
</svg>
