<svg width="583" height="505" viewBox="0 0 583 505" fill="none" xmlns="http://www.w3.org/2000/svg">
<path d="M368.5 0.5C368.68 2.26338 368.808 4.03053 368.882 5.80146C368.849 7.57768 368.761 9.35542 368.62 11.1347C368.37 12.9146 368.065 14.6938 367.706 16.4722C367.238 18.2466 366.715 20.0179 366.138 21.7861C365.452 23.5456 364.711 25.2997 363.916 27.0483C363.014 28.7835 362.058 30.511 361.048 32.2306C359.932 33.9322 358.764 35.6237 357.544 37.3051C356.221 38.9639 354.846 40.6102 353.421 42.2442C351.896 43.8511 350.322 45.4433 348.7 47.0209C346.981 48.5671 345.217 50.0965 343.406 51.6092C341.504 53.0862 339.559 54.5444 337.569 55.9838C335.495 57.3836 333.381 58.7626 331.225 60.1209C328.992 61.4359 326.721 62.7282 324.413 63.9981C322.033 65.221 319.62 66.4198 317.174 67.5943C314.664 68.7188 312.125 69.8176 309.556 70.8906C306.932 71.9107 304.283 72.9038 301.609 73.8698C298.889 74.7803 296.148 75.6627 293.386 76.5168C290.587 77.3133 287.773 78.0807 284.942 78.8188C282.085 79.4976 279.216 80.1465 276.337 80.7653C273.44 81.3236 270.537 81.8513 267.629 82.3485C264.714 82.7841 261.798 83.1889 258.881 83.5627C255.968 83.8746 253.06 84.1555 250.156 84.4053C247.266 84.5932 244.386 84.7501 241.516 84.8761C238.671 84.9406 235.841 84.9745 233.027 84.9778C230.247 84.9204 227.488 84.833 224.75 84.7155C222.057 84.5388 219.39 84.3328 216.749 84.0975C214.163 83.8047 211.609 83.4837 209.084 83.1344C206.626 82.7299 204.204 82.2983 201.817 81.8398C199.506 81.3286 197.234 80.7918 195.003 80.2295C192.857 79.6176 190.756 78.9818 188.699 78.3221C186.736 77.6163 184.821 76.8884 182.956 76.1385C181.192 75.3463 179.48 74.5341 177.822 73.7018C176.272 72.8316 174.779 71.9434 173.342 71.0374C172.021 70.098 170.759 69.1431 169.557 68.1726C168.476 67.1735 167.458 66.1614 166.502 65.1363C165.673 64.0877 164.908 63.0286 164.208 61.9592C163.64 60.8716 163.137 59.7763 162.702 58.6734C162.4 57.5578 162.167 56.4373 162.002 55.312C161.974 54.1797 162.015 53.0455 162.125 51.9092C162.373 50.7718 162.691 49.6354 163.079 48.4999C163.605 47.3691 164.201 46.2423 164.866 45.1193C165.67 44.007 166.543 42.9016 167.485 41.803C168.563 40.721 169.71 39.6488 170.925 38.5863C172.274 37.5464 173.69 36.5191 175.172 35.5045C176.785 34.5181 178.462 33.5473 180.204 32.592C182.073 31.6706 184.003 30.7675 185.995 29.8827C188.108 29.0371 190.28 28.2126 192.511 27.409C194.857 26.6499 197.258 25.9143 199.714 25.2023C202.278 24.5397 204.893 23.903 207.56 23.2922C210.326 22.7356 213.139 22.2071 216 21.7067C218.951 21.2648 221.944 20.8531 224.979 20.4716C228.096 20.1525 231.249 19.8654 234.44 19.6104C237.701 19.4213 240.995 19.266 244.32 19.1444C247.704 19.0917 251.115 19.0742 254.553 19.0918C258.037 19.1811 261.542 19.3067 265.068 19.4686C268.629 19.7043 272.204 19.9773 275.794 20.2875C279.407 20.6731 283.028 21.0966 286.656 21.5582C290.295 22.0961 293.936 22.6725 297.578 23.2872C301.218 23.9789 304.852 24.7091 308.482 25.4779C312.096 26.3236 315.699 27.2078 319.29 28.1303C322.852 29.1292 326.397 30.1661 329.923 31.241C333.408 32.3913 336.868 33.5788 340.304 34.8036C343.684 36.102 347.035 37.4367 350.354 38.8078C353.606 40.2503 356.822 41.7279 360 43.2406C363.099 44.8219 366.154 46.4368 369.167 48.0853C372.089 49.7992 374.961 51.5449 377.785 53.3223C380.507 55.1615 383.174 57.0304 385.788 58.9291C388.288 60.8852 390.728 62.8688 393.11 64.88C395.368 66.9438 397.563 69.0327 399.693 71.1467C401.691 73.3082 403.621 75.4922 405.483 77.6985C407.204 79.9468 408.853 82.2146 410.429 84.502C411.858 86.8255 413.211 89.1655 414.489 91.522C415.612 93.9084 416.657 96.3081 417.624 98.7211C418.431 101.158 419.157 103.604 419.803 106.061C420.284 108.534 420.683 111.014 421 113.5C421.15 115.996 421.216 118.496 421.198 120.998C421.011 123.503 420.74 126.008 420.385 128.512C419.86 131.012 419.251 133.508 418.557 136C417.695 138.481 416.748 140.954 415.718 143.419C414.521 145.865 413.24 148.301 411.878 150.725C410.351 153.124 408.743 155.507 407.054 157.877C405.206 160.213 403.278 162.531 401.273 164.832C399.112 167.092 396.876 169.332 394.565 171.549C392.106 173.721 389.574 175.868 386.97 177.99C384.227 180.06 381.415 182.102 378.535 184.117C375.524 186.073 372.449 187.998 369.311 189.893C366.051 191.723 362.733 193.521 359.356 195.285C355.869 196.979 352.329 198.638 348.736 200.261C345.043 201.81 341.304 203.321 337.519 204.793C333.646 206.188 329.733 207.542 325.78 208.856C321.752 210.088 317.692 211.278 313.597 212.426C309.443 213.489 305.262 214.509 301.055 215.485C296.802 216.374 292.53 217.218 288.239 218.017C283.917 218.727 279.583 219.391 275.237 220.01C270.876 220.537 266.511 221.019 262.141 221.455C257.772 221.798 253.406 222.096 249.044 222.348C244.697 222.507 240.361 222.621 236.038 222.688C231.745 222.664 227.471 222.595 223.216 222.48C219.008 222.274 214.827 222.024 210.673 221.729C206.581 221.346 202.523 220.919 198.5 220.449C194.553 219.892 190.649 219.294 186.786 218.653C183.015 217.929 179.293 217.165 175.62 216.36C172.052 215.477 168.54 214.555 165.085 213.595C161.747 212.56 158.473 211.489 155.261 210.382C152.181 209.205 149.169 207.995 146.226 206.751C143.426 205.444 140.7 204.106 138.049 202.737C135.552 201.31 133.135 199.855 130.797 198.374C128.623 196.84 126.534 195.282 124.529 193.701C122.697 192.074 120.953 190.427 119.298 188.76C117.823 187.055 116.44 185.333 115.149 183.594C114.045 181.825 113.036 180.044 112.122 178.249C111.4 176.433 110.775 174.607 110.248 172.773C109.916 170.924 109.683 169.071 109.548 167.213C109.612 165.349 109.776 163.484 110.039 161.619C110.501 159.757 111.064 157.898 111.726 156.042C112.587 154.198 113.547 152.361 114.607 150.532C115.864 148.723 117.219 146.925 118.671 145.14C120.318 143.382 122.061 141.64 123.9 139.915C125.928 138.225 128.05 136.556 130.265 134.906C132.664 133.301 135.152 131.72 137.731 130.163C140.486 128.657 143.326 127.18 146.253 125.73C149.347 124.34 152.522 122.981 155.779 121.654C159.193 120.393 162.683 119.167 166.25 117.976C169.962 116.858 173.745 115.779 177.598 114.737C181.585 113.775 185.635 112.854 189.75 111.974C193.985 111.179 198.277 110.427 202.626 109.72C207.081 109.103 211.586 108.532 216.14 108.007C220.786 107.577 225.473 107.195 230.202 106.861C235.006 106.626 239.844 106.442 244.715 106.307C249.645 106.274 254.6 106.292 259.58 106.362C264.602 106.537 269.64 106.764 274.695 107.043C279.773 107.429 284.859 107.868 289.953 108.36C295.053 108.959 300.151 109.612 305.248 110.319C310.333 111.133 315.407 112 320.471 112.921C325.505 113.949 330.519 115.031 335.514 116.165C340.46 117.405 345.378 118.697 350.268 120.042C355.091 121.49 359.878 122.99 364.627 124.541C369.292 126.192 373.912 127.893 378.485 129.644C382.958 131.492 387.377 133.388 391.741 135.332C395.989 137.368 400.174 139.45 404.297 141.578C408.287 143.793 412.206 146.052 416.056 148.353C419.759 150.737 423.384 153.16 426.931 155.624C430.318 158.164 433.62 160.74 436.838 163.353C439.882 166.036 442.836 168.752 445.699 171.501C448.377 174.312 450.958 177.152 453.444 180.022C455.733 182.946 457.921 185.895 460.009 188.869C461.891 191.89 463.668 194.931 465.34 197.994C466.798 201.094 468.148 204.21 469.389 207.343C470.41 210.505 471.32 213.679 472.118 216.864C472.692 220.069 473.153 223.281 473.5 226.5C473.619 229.729 473.624 232.961 473.514 236.195C473.174 239.429 472.719 242.661 472.15 245.89C471.35 249.11 470.436 252.323 469.408 255.528C468.151 258.715 466.781 261.889 465.298 265.052C463.589 268.185 461.77 271.302 459.839 274.402C457.688 277.464 455.428 280.504 453.06 283.523C450.479 286.494 447.792 289.439 445.001 292.358C442.004 295.221 438.907 298.053 435.709 300.854C432.315 303.591 428.826 306.293 425.241 308.96C421.472 311.553 417.613 314.108 413.664 316.624C409.543 319.059 405.339 321.452 401.052 323.802C396.606 326.063 392.085 328.279 387.487 330.448C382.746 332.522 377.936 334.548 373.059 336.524C368.053 338.399 362.988 340.221 357.863 341.992C352.627 343.656 347.341 345.266 342.003 346.821C336.572 348.265 331.1 349.652 325.586 350.983C319.998 352.198 314.377 353.355 308.725 354.454C303.017 355.434 297.287 356.354 291.535 357.215C285.748 357.955 279.949 358.635 274.138 359.254C268.312 359.751 262.484 360.186 256.653 360.561C250.829 360.813 245.014 361.003 239.206 361.133C233.425 361.14 227.663 361.086 221.919 360.971C216.223 360.736 210.555 360.44 204.916 360.083C199.345 359.608 193.813 359.074 188.32 358.481C182.914 357.772 177.558 357.006 172.25 356.182C167.049 355.246 161.907 354.254 156.824 353.208C151.866 352.053 146.977 350.846 142.155 349.586C137.477 348.224 132.877 346.812 128.352 345.35C123.989 343.791 119.712 342.186 115.519 340.534C111.504 338.793 107.582 337.008 103.752 335.181C100.116 333.271 96.5791 331.323 93.1425 329.335C89.9125 327.273 86.7891 325.177 83.7722 323.045C80.9743 320.848 78.2888 318.621 75.7157 316.364C73.3725 314.051 71.1468 311.711 69.0384 309.347C67.1694 306.936 65.4221 304.504 63.7965 302.052C62.418 299.563 61.1646 297.059 60.0363 294.539C59.1611 291.994 58.4135 289.438 57.7937 286.872C57.4312 284.291 57.1981 281.705 57.0943 279.114C57.2503 276.518 57.5365 273.923 57.9528 271.329C58.6296 268.742 59.4363 266.16 60.373 263.585C61.5689 261.027 62.8938 258.48 64.3476 255.945C66.0575 253.439 67.8943 250.949 69.8581 248.476C72.0731 246.043 74.4121 243.632 76.8752 241.243C79.5828 238.904 82.4106 236.592 85.3587 234.308C88.5428 232.084 91.8424 229.892 95.2576 227.733C98.8986 225.644 102.65 223.592 106.511 221.578C110.586 219.643 114.764 217.75 119.047 215.899C123.529 214.137 128.109 212.42 132.785 210.75C137.646 209.177 142.596 207.654 147.635 206.182C152.843 204.814 158.132 203.5 163.5 202.24C169.02 201.092 174.611 200.002 180.273 198.968C186.067 198.053 191.923 197.198 197.84 196.403C203.87 195.732 209.951 195.124 216.084 194.578C222.308 194.161 228.572 193.809 234.878 193.522C241.253 193.367 247.658 193.278 254.093 193.256C260.575 193.369 267.076 193.55 273.595 193.799C280.14 194.185 286.691 194.639 293.249 195.162C299.81 195.822 306.366 196.552 312.917 197.35C319.447 198.287 325.961 199.291 332.459 200.365C338.913 201.575 345.339 202.854 351.737 204.2C358.068 205.681 364.36 207.229 370.612 208.843C376.775 210.59 382.888 212.401 388.95 214.278C394.9 216.283 400.789 218.35 406.616 220.481C412.31 222.734 417.932 225.048 423.483 227.423C428.879 229.915 434.193 232.464 439.426 235.07C444.485 237.788 449.452 240.559 454.327 243.384C459.01 246.312 463.593 249.291 468.075 252.319C472.348 255.443 476.512 258.612 480.567 261.827C484.396 265.129 488.109 268.471 491.705 271.855C495.062 275.315 498.295 278.812 501.405 282.345C504.262 285.945 506.99 289.575 509.589 293.237C511.924 296.954 514.124 300.697 516.19 304.466C517.983 308.279 519.638 312.113 521.154 315.966C522.389 319.852 523.483 323.753 524.434 327.667C525.1 331.604 525.622 335.548 526 339.5C526.088 343.462 526.032 347.426 525.829 351.391C525.337 355.354 524.698 359.313 523.914 363.268C522.84 367.208 521.622 371.137 520.258 375.056C518.607 378.949 516.814 382.825 514.877 386.684C512.658 390.505 510.299 394.303 507.8 398.079C505.025 401.804 502.114 405.5 499.066 409.169C495.752 412.775 492.306 416.347 488.729 419.885C484.896 423.349 480.937 426.774 476.853 430.16C472.524 433.461 468.078 436.717 463.512 439.929C458.717 443.046 453.811 446.114 448.794 449.132C443.563 452.046 438.23 454.905 432.794 457.711C427.162 460.403 421.437 463.037 415.618 465.612C409.623 468.066 403.544 470.457 397.382 472.787C391.063 474.987 384.672 477.122 378.208 479.191C371.609 481.125 364.948 482.99 358.226 484.786C351.392 486.442 344.508 488.026 337.574 489.539C330.552 490.907 323.492 492.201 316.394 493.422C309.232 494.494 302.045 495.491 294.832 496.413C287.58 497.184 280.316 497.879 273.038 498.498C265.748 498.964 258.457 499.354 251.166 499.667C243.887 499.827 236.622 499.911 229.369 499.918C222.154 499.773 214.965 499.551 207.801 499.254C200.701 498.807 193.64 498.284 186.616 497.687C179.682 496.942 172.799 496.124 165.966 495.233C159.248 494.198 152.592 493.092 146 491.915C139.546 490.599 133.166 489.215 126.861 487.763C120.718 486.178 114.661 484.528 108.69 482.812C102.903 480.971 97.2129 479.068 91.6199 477.104C86.2315 475.022 80.9504 472.883 75.7767 470.686C70.8272 468.38 65.9946 466.021 61.2789 463.61C56.8057 461.099 52.458 458.54 48.2359 455.933C44.2729 453.237 40.4434 450.498 36.7473 447.717C33.3253 444.857 30.0437 441.96 26.9024 439.027C24.0482 436.027 21.3405 432.996 18.7791 429.934C16.5159 426.817 14.4041 423.675 12.4438 420.509C10.7905 417.301 9.2927 414.074 7.95026 410.829C6.92179 407.555 6.05162 404.269 5.33975 400.971C4.94654 397.657 4.71343 394.338 4.64038 391.014C4.88845 387.687 5.29726 384.362 5.86682 381.039C6.75769 377.726 7.80883 374.422 9.02026 371.127C10.5509 367.855 12.2403 364.599 14.0883 361.358C16.2512 358.154 18.57 354.973 21.0448 351.813C23.8279 348.704 26.7631 345.623 29.8504 342.571C33.2371 339.583 36.771 336.629 40.4521 333.71C44.4217 330.867 48.5324 328.065 52.7842 325.304C57.3115 322.631 61.9729 320.005 66.7684 317.426C71.8243 314.946 77.0063 312.519 82.3143 310.144C87.8658 307.88 93.5344 305.673 99.3201 303.524C105.33 301.496 111.448 299.53 117.673 297.627C124.102 295.853 130.628 294.147 137.25 292.507C144.054 291.006 150.944 289.576 157.919 288.216C165.053 287.003 172.26 285.864 179.54 284.799C186.955 283.887 194.43 283.052 201.965 282.295C209.609 281.696 217.301 281.176 225.04 280.737C232.861 280.459 240.716 280.264 248.605 280.15C256.548 280.202 264.512 280.337 272.496 280.555C280.506 280.94 288.523 281.41 296.546 281.964C304.567 282.686 312.581 283.492 320.586 284.382C328.562 285.44 336.516 286.583 344.448 287.809C352.321 289.201 360.159 290.676 367.96 292.235C375.676 293.957 383.341 295.76 390.957 297.644C398.459 299.689 405.898 301.812 413.273 304.015C420.508 306.373 427.666 308.807 434.747 311.317C441.662 313.976 448.488 316.709 455.224 319.514C461.769 322.461 468.213 325.477 474.555 328.563C480.683 331.782 486.697 335.066 492.598 338.414C498.262 341.888 503.803 345.421 509.219 349.014C514.378 352.721 519.403 356.484 524.295 360.3C528.91 364.221 533.382 368.19 537.711 372.209C541.747 376.319 545.632 380.472 549.366 384.668C552.791 388.943 556.059 393.255 559.169 397.604C561.956 402.019 564.581 406.463 567.041 410.938C569.169 415.465 571.128 420.015 572.918 424.588C574.368 429.2 575.645 433.828 576.75 438.471C577.508 443.139 578.091 447.815 578.5 452.5" stroke="#F0F9F0" stroke-width="9"/>
</svg>
